<?xml version="1.0" encoding="iso-8859-1"?>
<!-- Uploaded to: SVG Repo, www.svgrepo.com, Generator: SVG Repo Mixer Tools -->
<svg height="42px" width="42px" version="1.1" id="Layer_1" xmlns="http://www.w3.org/2000/svg" xmlns:xlink="http://www.w3.org/1999/xlink"
	 viewBox="0 0 512 512" xml:space="preserve">
<path style="fill:#8F5543;" d="M433.108,103.848l-42.626-42.626c-6.682-6.682-17.348-6.936-24.178-0.408L10.567,400.721
	c-6.784,6.482-10.458,15.098-10.565,24.479s3.609,18.079,10.242,24.714l33.968,33.968l-0.043,0.043
	c6.558,6.557,15.236,10.291,24.465,10.291c0.134,0,0.29,0.083,0.424,0.082c9.382-0.107,18.127-3.859,24.606-10.642L433.51,128.006
	C440.04,121.173,439.789,110.53,433.108,103.848z"/>
<path style="fill:#C97E67;" d="M411.463,82.203l-20.98-20.98c-6.682-6.682-17.348-6.936-24.178-0.408L10.567,400.721
	c-6.784,6.482-10.458,15.098-10.565,24.479s3.609,18.079,10.242,24.714l16.753,16.753L411.463,82.203z"/>
<path style="fill:#CCCCCC;" d="M510.984,191.388c-2.722-10.058-10.699-17.976-20.777-20.624
	c-21.945-5.764-40.797-20.494-51.699-40.389c-4.275-7.801-11.763-12.985-20.568-14.246c-8.803-1.259-17.451,1.637-23.74,7.927
	l-35.1,35.1c-6.289,6.289-9.194,14.927-7.935,23.732c1.258,8.806,6.425,16.32,14.226,20.595
	c19.897,10.903,34.715,29.67,40.372,51.721l-0.01-0.01c3.084,9.641,10.554,18.003,20.611,20.725
	c2.504,0.677,5.113,1.046,7.647,1.046c7.644,0,15.189-2.967,20.723-8.501l48.774-48.774
	C510.871,212.324,513.706,201.447,510.984,191.388z"/>
<path style="fill:#E1E1E1;" d="M365.494,69.025l-7.315-7.315l0.024-0.024C319.675,23.156,262.895,8.44,210.381,23.539l-4.499,1.295
	c-11.227,3.228-18.375,13.614-17.368,25.251c1.009,11.637,9.817,20.639,21.431,21.888c32.959,3.546,62.83,21.107,81.961,48.178
	c3.374,4.774,8.74,7.357,14.213,7.357c3.098,0,6.229-0.828,9.053-2.553L362.225,96.2c4.549-2.779,7.591-7.511,8.221-12.805
	C371.076,78.104,369.263,72.794,365.494,69.025z"/>
<path style="fill:#2C6991;" d="M433.108,103.848l-42.626-42.626c-6.682-6.682-17.575-6.709-24.405-0.181l-87.38,83.497
	l71.095,71.096l83.497-87.38C439.817,121.421,439.789,110.53,433.108,103.848z"/>
<path style="fill:#528FB3;" d="M411.463,82.203l-20.98-20.98c-6.682-6.682-17.575-6.709-24.405-0.181l-87.381,83.495l35.215,35.215
	L411.463,82.203z"/>
<path style="fill:#8F5543;" d="M423.432,138.572l9.946-10.408c6.529-6.833,6.501-17.723-0.181-24.406l-42.626-42.626
	c-6.682-6.682-17.575-6.709-24.405-0.181l-10.409,9.947L423.432,138.572z"/>
<path style="fill:#C97E67;" d="M389.263,104.402l22.29-22.29l-20.98-20.98c-6.682-6.682-17.575-6.709-24.405-0.181l-10.409,9.947
	L389.263,104.402z"/>
</svg>