<?xml version="1.0" encoding="iso-8859-1"?>
<!-- Uploaded to: SVG Repo, www.svgrepo.com, Generator: SVG Repo Mixer Tools -->
<svg height="42px" width="42px" version="1.1" id="Layer_1" xmlns="http://www.w3.org/2000/svg" xmlns:xlink="http://www.w3.org/1999/xlink"
	 viewBox="0 0 511.998 511.998" xml:space="preserve">
<path style="fill:#247396;" d="M251.585,289.274l-28.856-28.856c-41.685-41.685-109.272-41.685-150.957,0L55.461,276.73
	l179.811,179.811l16.312-16.312C293.271,398.545,293.271,330.959,251.585,289.274z"/>
<path style="fill:#1B627A;" d="M258.3,296.648c-2.105-2.535-4.339-4.999-6.715-7.374l-28.856-28.856
	c-41.685-41.685-109.272-41.685-150.957,0L55.46,276.73l42.944,42.945l16.312-16.312C154.028,264.054,216.365,261.82,258.3,296.648z
	"/>
<path style="fill:#247396;" d="M189.769,495.55L16.455,322.236c-10.235-10.235-10.235-26.83,0-37.065l3.306-3.306
	c11.276-11.276,29.558-11.276,40.834,0L230.141,451.41c11.276,11.276,11.276,29.558,0,40.834l-3.306,3.306
	C216.599,505.785,200.004,505.785,189.769,495.55z"/>
<path style="fill:#1B627A;" d="M65.349,334.065l3.306-3.306c11.276-11.276,29.558-11.276,40.834,0l-48.894-48.894
	c-11.276-11.276-29.558-11.276-40.834,0l-3.306,3.306c-10.235,10.235-10.235,26.83,0,37.065l48.894,48.894
	C55.113,360.895,55.113,344.3,65.349,334.065z"/>
<path style="fill:#DD852C;" d="M222.48,260.168l40.541-40.541c53.144-53.144,102.718-109.82,147.23-170.39
	c5.781-7.866,11.993-15.409,18.359-21.776c7.381-7.381,16.318-12.541,25.525-16.138c29.111-11.364,57.9,17.424,46.535,46.535
	c-3.596,9.206-8.748,18.152-16.129,25.533c-6.365,6.365-13.917,12.568-21.784,18.35c-60.57,44.512-117.246,94.086-170.39,147.23
	l-40.541,40.541"/>
<path style="fill:#C16D21;" d="M471.009,28.192c-7.177,5.635-14.742,12.157-22.127,19.541c-6.365,6.365-13.061,13.425-19.591,20.536
	c-50.337,54.746-102.488,108.852-155.634,161.998l-40.541,40.541l-10.64-10.641l40.541-40.541
	c53.146-53.146,102.72-109.814,147.231-170.385c5.785-7.872,12-15.414,18.365-21.779c7.384-7.384,16.309-12.547,25.525-16.143
	c14.561-5.677,29.038-1.326,38.453,8.088C490.002,16.821,482.345,19.292,471.009,28.192z"/>
<path d="M498.796,13.199c-12.751-12.751-31.091-16.606-47.859-10.06c-11.36,4.437-20.962,10.53-28.543,18.111
	c-6.213,6.213-12.681,13.879-19.227,22.785c-42.34,57.614-91.584,114.601-146.363,169.379l-34.578,34.578
	c-15.872-13.575-34.943-22.514-55.666-26.01c-4.785-0.812-9.322,2.418-10.13,7.205c-0.807,4.786,2.418,9.322,7.205,10.13
	c20.114,3.394,38.398,12.84,52.877,27.318l28.856,28.856c38.192,38.192,38.192,100.334,0,138.526l-10.097,10.097L67.891,276.731
	l10.097-10.097c15.01-15.01,34.009-24.568,54.943-27.644c4.803-0.706,8.125-5.171,7.42-9.974c-0.706-4.803-5.17-8.12-9.974-7.42
	c-24.703,3.628-47.116,14.904-64.819,32.606l-12.621,12.621c-4.039-1.451-8.341-2.208-12.759-2.208
	c-10.06,0-19.519,3.918-26.632,11.032l-3.306,3.306c-13.647,13.647-13.647,35.85,0,49.495l112.718,112.718
	c3.433,3.433,8.999,3.433,12.43,0c3.433-3.433,3.433-8.999,0-12.43L22.669,316.02c-3.29-3.291-5.102-7.665-5.102-12.318
	s1.812-9.027,5.102-12.318l3.306-3.306c3.794-3.794,8.837-5.883,14.202-5.883c5.364,0,10.407,2.09,14.201,5.883l169.546,169.546
	c7.831,7.831,7.831,20.572,0,28.403l-3.306,3.306c-3.291,3.29-7.665,5.102-12.318,5.102s-9.028-1.812-12.318-5.102l-39.504-39.504
	c-3.433-3.433-8.999-3.433-12.43,0c-3.433,3.433-3.433,8.999,0,12.43l39.504,39.504c6.823,6.823,15.786,10.235,24.749,10.235
	c8.962,0,17.924-3.412,24.748-10.235l3.306-3.306c10.628-10.628,13.559-26.078,8.803-39.371l12.642-12.642
	c42.871-42.87,44.908-111.311,6.176-156.653l34.604-34.604c47.596-47.596,96.935-91.093,146.65-129.282
	c3.85-2.957,4.573-8.476,1.616-12.326c-2.957-3.85-8.477-4.573-12.326-1.616c-50.318,38.653-100.237,82.658-148.372,130.793
	l-34.326,34.325l-16.914-16.914l34.325-34.326c55.406-55.405,105.233-113.072,148.097-171.4c6.021-8.193,11.905-15.18,17.492-20.765
	c5.852-5.852,13.424-10.618,22.505-14.166c12.154-4.744,22.966,0.049,29.034,6.117s10.861,16.881,6.118,29.033
	c-3.555,9.102-8.319,16.676-14.158,22.516c-5.546,5.546-12.536,11.427-20.775,17.483c-3.911,2.875-4.752,8.376-1.878,12.288
	c2.875,3.912,8.375,4.752,12.288,1.878c8.953-6.578,16.622-13.044,22.795-19.217c7.566-7.568,13.656-17.173,18.101-28.553
	C515.404,44.289,511.548,25.951,498.796,13.199z"/>
</svg>