<?xml version="1.0" encoding="iso-8859-1"?>
<!-- Uploaded to: SVG Repo, www.svgrepo.com, Generator: SVG Repo Mixer Tools -->
<svg height="42px" width="42px" version="1.1" id="Layer_1" xmlns="http://www.w3.org/2000/svg" xmlns:xlink="http://www.w3.org/1999/xlink"
	 viewBox="0 0 512 512" xml:space="preserve">
<path style="fill:#47A7DD;" d="M323.353,452.387V245.456c0-25.146-20.391-45.537-45.537-45.537H128.594
	c-25.157,0-45.537,20.391-45.537,45.537v239.438h187.969"/>
<path style="fill:#3F9EC9;" d="M181.414,199.92h-52.819c-25.157,0-45.537,20.391-45.537,45.537v239.438h52.819V245.456
	C135.877,220.311,156.257,199.92,181.414,199.92z"/>
<path style="fill:#CCCCCC;" d="M473.86,486.764v16.982H359.181h-88.158v-0.011v-16.972c0-18.985,15.39-34.376,34.376-34.376h17.466
	h30.01h38.044h48.565C458.47,452.388,473.86,467.779,473.86,486.764z"/>
<path style="fill:#B3B3B3;" d="M310.639,486.764c0-18.985,15.39-34.376,34.376-34.376h-22.148H305.4
	c-18.985,0-34.376,15.39-34.376,34.376v16.972v0.011h39.614v-0.011V486.764z"/>
<polygon style="fill:#F2F2F2;" points="390.919,133.475 390.919,452.388 352.875,452.388 352.875,370.041 352.875,133.475 "/>
<path style="fill:#247396;" d="M390.919,110.541v22.933h-38.044v-22.933c0-35.435-28.821-64.256-64.245-64.256
	s-64.244,28.821-64.244,64.256v57.279h-38.044v-57.279c0-56.398,45.89-102.288,102.288-102.288S390.919,54.142,390.919,110.541z"/>
<g>
	<rect x="38.141" y="407.313" style="fill:#4D4D4D;" width="44.917" height="96.425"/>
	<rect x="323.353" y="407.313" style="fill:#4D4D4D;" width="29.522" height="45.078"/>
</g>
<path style="fill:#E6E6E6;" d="M265.245,408.963h58.104v-107.29h-58.104c-13.548,0-24.532,10.983-24.532,24.532v58.225
	C240.713,397.98,251.697,408.963,265.245,408.963z"/>
<path d="M244.014,476.641H91.31V353.944c0-4.559-3.695-8.254-8.254-8.254s-8.254,3.695-8.254,8.254v45.114H38.139
	c-4.559,0-8.254,3.695-8.254,8.254v96.424c0,4.559,3.695,8.254,8.254,8.254h44.915c4.559,0,8.254-3.695,8.254-8.254v-10.588h152.707
	c4.559,0,8.254-3.695,8.254-8.254C252.268,480.336,248.573,476.641,244.014,476.641z M74.801,495.482H46.394v-79.916h28.407V495.482
	z"/>
<path d="M444.621,444.135h-45.449V405.52c0-4.559-3.695-8.254-8.254-8.254s-8.254,3.695-8.254,8.254v38.615h-21.536V141.729h21.536
	v236.28c0,4.559,3.695,8.254,8.254,8.254s8.254-3.695,8.254-8.254V110.541C399.173,49.588,349.584,0,288.632,0
	S178.09,49.589,178.09,110.541v49.026h-3.939c-12.5,0-22.669,10.17-22.669,22.669v9.429h-22.887
	c-29.661,0-53.791,24.13-53.791,53.791v80.976c0,4.559,3.695,8.254,8.254,8.254s8.254-3.695,8.254-8.254v-54.471h174.162
	c4.559,0,8.254-3.695,8.254-8.254s-3.695-8.254-8.254-8.254H91.31v-9.999c0-20.558,16.724-37.283,37.283-37.283h149.223
	c20.558,0,37.283,16.724,37.283,37.283v9.999h-22.116c-4.559,0-8.254,3.695-8.254,8.254c0,4.559,3.695,8.254,8.254,8.254h22.116
	v21.458h-52.594c-16.567,0-30.046,13.479-30.046,30.046v63.703c0,16.567,13.479,30.046,30.046,30.046h52.594v26.918h-14.837
	c-20.674,0-37.492,16.819-37.492,37.494v22.119c0,4.559,3.695,8.254,8.254,8.254h202.837c4.559,0,8.254-3.695,8.254-8.254v-22.119
	C482.114,460.953,465.295,444.135,444.621,444.135z M194.597,110.541c0-51.851,42.183-94.034,94.034-94.034
	s94.034,42.183,94.034,94.034v14.681h-21.536v-14.681c0-39.981-32.522-72.509-72.498-72.509c-39.976,0-72.498,32.527-72.498,72.509
	v49.026h-21.536V110.541z M167.987,182.236c0-3.398,2.765-6.163,6.163-6.163h58.105c3.398,0,6.162,2.765,6.162,6.163v9.429h-70.43
	V182.236z M277.816,191.666h-22.893v-9.429c0-12.37-9.963-22.441-22.284-22.651v-49.045c0-30.88,25.117-56.002,55.992-56.002
	c30.874,0,55.992,25.122,55.992,56.002v288.518h-13.016V245.456C331.607,215.797,307.477,191.666,277.816,191.666z M315.097,400.71
	h-52.59c-7.466,0-13.54-6.074-13.54-13.54v-63.703c0-7.466,6.074-13.54,13.54-13.54h52.59V400.71z M331.607,415.565h13.016v28.569
	h-13.016V415.565z M465.607,495.494h-186.33v-13.865c0-11.572,9.415-20.986,20.986-20.986h144.359
	c11.571,0,20.986,9.415,20.986,20.986V495.494z"/>
</svg>